<svg width="66" height="71" viewBox="0 0 66 71" fill="none" xmlns="http://www.w3.org/2000/svg">
  <path fill-rule="evenodd" clip-rule="evenodd" d="M14.5261 32.9319H51.6743V21.5733H39.8393C38.5969 21.5733 36.8677 20.8973 36.0489 20.0711C35.2302 19.2449 34.732 17.7543 34.732 16.5064V4.41403H4.66071C4.55765 4.41403 4.47749 4.46603 4.42596 4.51802C4.34007 4.5758 4.31717 4.65091 4.31717 4.76068V66.2624C4.31717 66.3433 4.3687 66.4473 4.42023 66.4993C4.47176 66.5802 4.58055 66.6033 4.65498 66.6033C17.6981 66.6033 37.9155 66.6033 51.3251 66.6033C51.4281 66.6033 51.4224 66.5513 51.4797 66.4993C51.5598 66.4473 51.6686 66.3375 51.6686 66.2624V59.8147H14.5261C12.1556 59.8147 10.1974 57.8504 10.1974 55.4469V37.2939C10.1974 34.8963 12.1442 32.9319 14.5261 32.9319ZM26.2637 47.5779L29.8652 48.6756C29.6247 49.6925 29.2411 50.5476 28.72 51.2293C28.199 51.9111 27.5577 52.431 26.7848 52.7777C26.0118 53.1243 25.0327 53.2977 23.8418 53.2977C22.3932 53.2977 21.2137 53.0839 20.2976 52.6621C19.3815 52.2346 18.5913 51.4893 17.9271 50.4262C17.2629 49.3632 16.9251 47.9939 16.9251 46.33C16.9251 44.1114 17.5092 42.407 18.6772 41.2169C19.851 40.0267 21.5057 39.4316 23.6471 39.4316C25.319 39.4316 26.6416 39.7725 27.5978 40.4542C28.554 41.136 29.2697 42.1875 29.7335 43.603L26.1149 44.4118C25.9889 44.0074 25.8572 43.707 25.7141 43.5221C25.4793 43.2043 25.1988 42.9617 24.8667 42.7941C24.5346 42.6208 24.1624 42.5399 23.7502 42.5399C22.8169 42.5399 22.1012 42.9155 21.603 43.6723C21.2309 44.2327 21.0419 45.1109 21.0419 46.3069C21.0419 47.7917 21.2652 48.8085 21.7118 49.3632C22.1584 49.912 22.7882 50.1894 23.6013 50.1894C24.3857 50.1894 24.9812 49.9698 25.382 49.5192C25.7942 49.0685 26.0805 48.4272 26.2637 47.5779ZM31.1821 48.6294L35.0813 48.381C35.1672 49.0165 35.3389 49.5076 35.5966 49.8369C36.0203 50.38 36.6215 50.6516 37.4116 50.6516C37.9957 50.6516 38.448 50.5129 38.7629 50.2356C39.0835 49.9583 39.2381 49.6347 39.2381 49.2707C39.2381 48.9241 39.0893 48.6121 38.7915 48.3348C38.4938 48.0575 37.7895 47.8032 36.6959 47.5548C34.8923 47.1504 33.6155 46.6073 32.8483 45.9255C32.0753 45.2496 31.686 44.3887 31.686 43.3372C31.686 42.6497 31.8864 42.0026 32.2814 41.3902C32.6765 40.7778 33.272 40.2925 34.0678 39.9458C34.8637 39.5934 35.9516 39.4201 37.3372 39.4201C39.0377 39.4201 40.3317 39.7378 41.2192 40.3791C42.1124 41.0146 42.6392 42.0315 42.811 43.4239L38.9461 43.655C38.8431 43.0483 38.6255 42.6035 38.2991 42.3261C37.967 42.0488 37.5147 41.9102 36.9364 41.9102C36.4612 41.9102 36.1005 42.0142 35.8543 42.2164C35.6138 42.4186 35.4935 42.667 35.4935 42.9617C35.4935 43.1754 35.5909 43.3661 35.7855 43.5336C35.9745 43.7128 36.4326 43.8745 37.154 44.0247C38.9519 44.4176 40.2344 44.8105 41.0074 45.2091C41.7861 45.6078 42.3529 46.1046 42.7022 46.694C43.0572 47.2833 43.2289 47.9477 43.2289 48.6814C43.2289 49.5423 42.9942 50.3338 42.5247 51.0618C42.0494 51.784 41.3967 52.3386 40.5493 52.7141C39.7019 53.0897 38.6369 53.2746 37.3544 53.2746C35.0927 53.2746 33.5296 52.8355 32.6593 51.9573C31.789 51.0964 31.2966 49.9814 31.1821 48.6294ZM44.0305 39.6512H48.3248L51.3193 49.3054L54.2738 39.6512H58.4421L53.5066 53.0666H49.0577L44.0305 39.6512ZM55.9858 32.9319H61.6714C64.0533 32.9319 66 34.902 66 37.2997V55.4527C66 57.8504 64.0475 59.8205 61.6714 59.8205H55.9858V67.649C55.9858 68.5792 55.6136 69.4054 55.0124 70.0178C54.4055 70.6302 53.5867 71 52.6649 71C35.8084 71 20.2632 71 3.3209 71C2.39906 71 1.58029 70.6302 0.973367 70.0178C0.366444 69.4054 0 68.5792 0 67.649V3.37985C0 2.44967 0.37217 1.62348 0.973367 1.01107C1.58029 0.398649 2.42197 0.0288876 3.3209 0.0288876H36.9421C37.0166 0 37.0967 0 37.1769 0C37.5433 0 37.9155 0.161771 38.1789 0.398649H38.2304C38.2819 0.427537 38.3106 0.450647 38.3621 0.502645L55.5334 18.0432C55.8255 18.3379 56.0373 18.7365 56.0373 19.1872C56.0373 19.32 56.0087 19.424 55.9858 19.5627V32.9319V32.9319ZM38.6541 16.1597V5.16511L50.9243 17.7023H40.1829C39.7592 17.7023 39.3927 17.5175 39.1007 17.2517C38.8373 16.9859 38.6541 16.5873 38.6541 16.1597Z" fill="url(#paint0_linear_2_32)" />
  <defs>
    <linearGradient id="paint0_linear_2_32" x1="-55.2906" y1="36.1698" x2="107.592" y2="36.1699" gradientUnits="userSpaceOnUse">
      <stop stop-color="#8e66e1" />
      <stop offset="0.0001" stop-color="#00729c" />
      <stop offset="1" stop-color="#8e66e1" />
    </linearGradient>
  </defs>
</svg>