<svg width="155" height="150" viewBox="0 0 155 150" fill="none" xmlns="http://www.w3.org/2000/svg">
  <path fill-rule="evenodd" clip-rule="evenodd" d="M77.5 0C92.828 0 107.812 4.39867 120.557 12.6398C133.301 20.8809 143.235 32.5943 149.101 46.2987C154.966 60.0032 156.501 75.0832 153.511 89.6318C150.52 104.18 143.139 117.544 132.301 128.033C121.462 138.522 107.653 145.665 92.6195 148.559C77.586 151.453 62.0033 149.967 47.842 144.291C33.6808 138.614 21.5769 129.001 13.0611 116.668C4.5453 104.334 0 89.8336 0 75C0 55.1087 8.16515 36.0322 22.6992 21.967C37.2333 7.90176 56.9457 0 77.5 0ZM52.7388 65.1611L67.4593 78.8086L100.71 46.2768C102.904 44.1162 104.279 42.395 107.017 45.0561L115.846 53.7475C118.722 56.5063 118.571 58.1299 115.846 60.6933L72.467 102.063C66.7403 107.495 67.7368 107.825 61.9218 102.258L37.9553 79.187C36.6939 77.9663 36.8831 76.6357 38.2076 75.3662L48.387 65.1489C49.9133 63.5986 51.1369 63.6841 52.7262 65.1489L52.7388 65.1611Z" fill="url(#paint0_linear_9_3)" />
  <defs>
    <linearGradient id="paint0_linear_9_3" x1="-129.849" y1="76.4151" x2="252.679" y2="76.4154" gradientUnits="userSpaceOnUse">
      <stop offset="0.307292" stop-color="#00729c" />
      <stop offset="0.796875" stop-color="#8e66e1" />
    </linearGradient>
  </defs>
</svg>