<svg width="66" height="75" viewBox="0 0 66 75" fill="none" xmlns="http://www.w3.org/2000/svg">
<path d="M61.824 26.8271H60.0345V18.1376C60.0345 18.0835 60.026 18.0289 60.0197 17.9735C60.0168 17.6288 59.907 17.29 59.6722 17.0214L45.3027 0.502972C45.2982 0.498731 45.294 0.497227 45.2912 0.492713C45.2055 0.396414 45.1058 0.316255 44.9999 0.24704C44.9688 0.225975 44.9372 0.208329 44.9045 0.189726C44.8131 0.139798 44.7159 0.0978039 44.6162 0.0675736C44.589 0.0604606 44.5647 0.0492439 44.5378 0.0421309C44.4292 0.0161411 44.3165 0 44.2024 0H8.88896C7.2765 0 5.96648 1.31987 5.96648 2.94123V26.8263H4.17719C1.87044 26.8263 0 28.708 0 31.0302V52.8907C0 55.2108 1.87044 57.0944 4.17719 57.0944H5.96648V72.0589C5.96648 73.6804 7.2765 75 8.88896 75H57.1112C58.7223 75 60.0337 73.6804 60.0337 72.0589V57.0945H61.8232C64.1293 57.0945 66 55.2117 66 52.8908V31.0311C66.0001 28.7081 64.1306 26.8271 61.824 26.8271ZM8.88896 2.94123H42.7411V17.9888C42.7411 18.8013 43.3959 19.4594 44.2024 19.4594H57.1113V26.827H8.88896V2.94123ZM38.4956 43.0421C35.6243 42.0354 33.7508 40.4369 33.7508 37.9065C33.7508 34.9384 36.2123 32.6679 40.2908 32.6679C42.2388 32.6679 43.6757 33.0802 44.7005 33.5451L43.8291 36.7186C43.1371 36.384 41.9063 35.8928 40.2138 35.8928C38.5213 35.8928 37.7008 36.6673 37.7008 37.5706C37.7008 38.6807 38.6755 39.1705 40.9059 40.022C43.9568 41.1581 45.3931 42.7578 45.3931 45.2092C45.3931 48.1259 43.1619 50.6035 38.4178 50.6035C36.4437 50.6035 34.4949 50.0879 33.5204 49.5451L34.3146 46.2937C35.3663 46.8351 36.9823 47.378 38.6485 47.378C40.4451 47.378 41.3925 46.6298 41.3925 45.4939C41.3932 44.4108 40.5727 43.7902 38.4956 43.0421ZM31.8817 47.0416V50.346H21.0841V32.9499H25.0092V47.0416H31.8817ZM8.54643 50.346H4.08462L9.08496 41.5433L4.26336 32.9492H8.75167L10.2638 36.1241C10.7768 37.1823 11.1617 38.0329 11.5725 39.0151H11.6224C12.0338 37.9051 12.3668 37.1309 12.8015 36.1241L14.2635 32.9492H18.7254L13.8529 41.4392L18.9826 50.3445H14.4697L12.9045 47.1954C12.2645 45.9841 11.8538 45.0799 11.3664 44.0733H11.3155C10.9559 45.0799 10.521 45.9841 9.98191 47.1954L8.54643 50.346ZM57.1113 71.2625H8.88896V57.0945H57.1112V71.2625H57.1113ZM57.1377 50.346L55.5729 47.1969C54.9321 45.9845 54.5218 45.0814 54.0344 44.0747H53.9847C53.625 45.0814 53.1884 45.9845 52.649 47.1969L51.2148 50.346H46.7517L51.752 41.5433L46.9307 32.9492H51.4189L52.9329 36.1241C53.4453 37.1823 53.829 38.0329 54.2402 39.0151H54.2914C54.701 37.9051 55.0335 37.1309 55.47 36.1241L56.9315 32.9492H61.3945L56.5218 41.4392L61.6506 50.3445H57.1377V50.346Z" fill="url(#paint0_linear_201_5)"/>
<defs>
<linearGradient id="paint0_linear_201_5" x1="-55.2906" y1="38.2075" x2="107.592" y2="38.2077" gradientUnits="userSpaceOnUse">
<stop stop-color="#00729C"/>
<stop offset="1" stop-color="#8E66E1"/>
</linearGradient>
</defs>
</svg>
